<svg viewBox="0 0 512.00002 512" xmlns="http://www.w3.org/2000/svg"><path d="m378.902344 230.472656v45.957032h-368.664063v-45.957032c0-8.519531 8.035157-15.472656 17.875-15.472656h332.925781c9.828126 0 17.863282 6.953125 17.863282 15.472656zm0 0" fill="#7df5a5"/><path d="m378.902344 276.429688v209.769531c0 8.519531-8.035156 15.46875-17.863282 15.46875h-332.925781c-9.839843 0-17.875-6.949219-17.875-15.46875v-209.769531zm0 0" fill="#f7f7f7"/><path d="m440.332031 174.046875v209.769531c0 8.519532-8.035156 15.472656-17.863281 15.472656h-43.566406v-168.816406c0-8.519531-8.035156-15.472656-17.863282-15.472656h-289.371093v-40.953125zm0 0" fill="#f7f7f7"/><path d="m440.332031 128.089844v45.957031h-368.664062v-45.957031c0-8.519532 8.035156-15.46875 17.875-15.46875h332.925781c9.828125 0 17.863281 6.949218 17.863281 15.46875zm0 0" fill="#ffa3bf"/><path d="m501.761719 71.667969v209.769531c0 8.515625-8.035157 15.46875-17.867188 15.46875h-43.5625v-168.816406c0-8.519532-8.035156-15.46875-17.863281-15.46875h-289.371094v-40.953125zm0 0" fill="#f7f7f7"/><path d="m501.761719 25.707031v45.960938h-368.664063v-45.960938c0-8.515625 8.035156-15.46875 17.875-15.46875h332.921875c9.832031 0 17.867188 6.953125 17.867188 15.46875zm0 0" fill="#c9f3ff"/><path d="m145.867188 256.042969h194.445312c5.65625 0 10.238281-4.582031 10.238281-10.238281 0-5.652344-4.582031-10.238282-10.238281-10.238282h-194.445312c-5.65625 0-10.238282 4.585938-10.238282 10.238282 0 5.65625 4.582032 10.238281 10.238282 10.238281zm0 0"/><path d="m38.503906 249.71875c.257813.625.5625 1.21875.933594 1.769531.378906.566407.808594 1.085938 1.277344 1.558594.472656.46875.996094.898437 1.558594 1.269531.554687.367188 1.144531.683594 1.769531.941406.617187.257813 1.261719.449219 1.914062.582032.65625.132812 1.332031.207031 1.996094.207031s1.34375-.074219 1.996094-.207031c.65625-.132813 1.300781-.324219 1.914062-.582032.625-.257812 1.21875-.574218 1.773438-.941406.5625-.371094 1.085937-.800781 1.554687-1.269531.472656-.472656.902344-.992187 1.269532-1.558594.367187-.550781.6875-1.144531.941406-1.769531.257812-.613281.453125-1.257812.585937-1.914062.132813-.65625.203125-1.332032.203125-1.996094 0-.667969-.070312-1.34375-.203125-2.007813-.132812-.644531-.328125-1.289062-.585937-1.914062-.253906-.613281-.574219-1.207031-.941406-1.761719-.367188-.5625-.796876-1.085938-1.269532-1.554688-.46875-.472656-.992187-.902343-1.554687-1.28125-.554688-.367187-1.148438-.683593-1.773438-.941406-.613281-.253906-1.257812-.449218-1.914062-.582031-1.320313-.265625-2.671875-.265625-3.992188 0-.652343.132813-1.300781.328125-1.914062.582031-.625.257813-1.214844.574219-1.769531.941406-.5625.378907-1.085938.808594-1.558594 1.28125-.46875.46875-.898438.992188-1.277344 1.554688-.371094.554688-.675781 1.148438-.933594 1.761719-.253906.625-.460937 1.269531-.59375 1.914062-.132812.664063-.191406 1.339844-.191406 2.007813 0 .664062.058594 1.339844.191406 1.996094.132813.65625.339844 1.300781.59375 1.914062zm0 0"/><path d="m77.921875 256.046875c2.703125 0 5.332031-1.097656 7.238281-3 1.914063-1.90625 3.011719-4.546875 3.011719-7.238281 0-2.703125-1.097656-5.335938-3.011719-7.238282-2.363281-2.375-5.910156-3.472656-9.234375-2.804687-.65625.132813-1.300781.328125-1.914062.582031-.617188.257813-1.210938.574219-1.773438.941406-.550781.378907-1.085937.808594-1.554687 1.28125-1.90625 1.902344-3 4.535157-3 7.238282 0 2.691406 1.09375 5.332031 3 7.238281 1.902344 1.902344 4.546875 3 7.238281 3zm0 0"/><path d="m98.449219 249.71875c.253906.625.574219 1.21875.941406 1.769531.367187.566407.800781 1.085938 1.269531 1.558594.472656.46875.996094.898437 1.558594 1.269531.550781.367188 1.144531.683594 1.769531.941406.613281.257813 1.257813.449219 1.914063.582032.65625.132812 1.332031.207031 1.996094.207031.664062 0 1.339843-.074219 1.996093-.207031.65625-.132813 1.300781-.324219 1.914063-.582032.625-.257812 1.21875-.574218 1.769531-.941406.566406-.371094 1.089844-.800781 1.558594-1.269531.472656-.472656.902343-.992187 1.269531-1.558594.367188-.550781.6875-1.144531.941406-1.769531.257813-.613281.460938-1.257812.582032-1.914062.132812-.65625.207031-1.332032.207031-1.996094 0-.667969-.074219-1.34375-.207031-2.007813-.121094-.644531-.324219-1.289062-.582032-1.914062-.253906-.613281-.574218-1.207031-.941406-1.761719-.367188-.5625-.796875-1.085938-1.269531-1.554688-.46875-.472656-.992188-.902343-1.558594-1.28125-.550781-.367187-1.144531-.683593-1.769531-.941406-.613282-.253906-1.257813-.449218-1.914063-.582031-1.320312-.265625-2.671875-.265625-3.992187 0-.65625.132813-1.300782.328125-1.914063.582031-.625.257813-1.21875.574219-1.769531.941406-.5625.378907-1.085938.808594-1.558594 1.28125-.46875.46875-.902344.992188-1.269531 1.554688-.367187.554688-.6875 1.148438-.941406 1.761719-.257813.625-.460938 1.269531-.59375 1.914062-.132813.664063-.195313 1.339844-.195313 2.007813 0 .664062.0625 1.339844.195313 1.996094.132812.65625.335937 1.300781.59375 1.914062zm0 0"/><path d="m207.296875 153.664062h194.445313c5.65625 0 10.238281-4.585937 10.238281-10.238281 0-5.65625-4.582031-10.238281-10.238281-10.238281h-194.445313c-5.65625 0-10.238281 4.582031-10.238281 10.238281 0 5.652344 4.582031 10.238281 10.238281 10.238281zm0 0"/><path d="m99.933594 147.335938c.257812.625.5625 1.21875.933594 1.773437.375.5625.808593 1.085937 1.277343 1.554687.472657.472657.992188.902344 1.558594 1.269532.550781.371094 1.144531.6875 1.761719.941406.621094.257812 1.269531.453125 1.914062.585938.664063.132812 1.339844.203124 2.003906.203124.667969 0 1.34375-.070312 2-.203124.652344-.132813 1.296876-.328126 1.910157-.585938.625-.253906 1.21875-.570312 1.773437-.941406.5625-.367188 1.085938-.796875 1.554688-1.269532 1.90625-1.902343 3-4.546874 3-7.238281 0-.664062-.070313-1.339843-.203125-2.007812-.132813-.644531-.328125-1.289063-.582031-1.914063-.257813-.613281-.574219-1.207031-.945313-1.757812-.367187-.566406-.796875-1.085938-1.269531-1.558594-.46875-.46875-.992188-.902344-1.554688-1.277344-.550781-.371094-1.144531-.6875-1.769531-.945312-.617187-.253906-1.257813-.449219-1.914063-.582032-1.320312-.265624-2.683593-.265624-4.003906 0-.644531.132813-1.289062.328126-1.914062.582032-.617188.257812-1.207032.574218-1.761719.945312-.5625.375-1.085937.808594-1.558594 1.277344-.46875.472656-.898437.992188-1.277343 1.558594-.371094.550781-.675782 1.144531-.933594 1.757812-.253906.625-.460938 1.269532-.59375 1.914063-.132813.667969-.191406 1.34375-.191406 2.007812 0 .667969.058593 1.339844.191406 1.996094.132812.65625.335937 1.300781.59375 1.914063zm0 0"/><path d="m129.902344 147.335938c.253906.625.574218 1.21875.941406 1.773437.367188.5625.796875 1.085937 1.269531 1.554687.472657.472657 1.003907.902344 1.554688 1.269532.566406.371094 1.160156.6875 1.773437.941406.613282.257812 1.257813.453125 1.914063.585938.664062.132812 1.332031.203124 1.996093.203124.675782 0 1.339844-.070312 2.003907-.203124.65625-.132813 1.292969-.328126 1.917969-.585938.613281-.253906 1.207031-.570312 1.757812-.941406.566406-.367188 1.085938-.796875 1.566406-1.269532.472656-.46875.902344-.992187 1.269532-1.554687.371093-.554687.6875-1.148437.945312-1.773437.253906-.613282.449219-1.257813.582031-1.914063.132813-.65625.191407-1.328125.191407-1.996094 0-.664062-.058594-1.339843-.191407-2.007812-.132812-.644531-.328125-1.289063-.582031-1.914063-.257812-.613281-.574219-1.207031-.945312-1.757812-.367188-.566406-.796876-1.085938-1.269532-1.558594-.480468-.46875-1-.902344-1.566406-1.277344-.550781-.371094-1.144531-.6875-1.757812-.945312-.625-.253906-1.261719-.449219-1.917969-.582032-1.320313-.265624-2.679688-.265624-4 0-.65625.132813-1.300781.328126-1.914063.582032-.617187.257812-1.210937.574218-1.773437.945312-.550781.375-1.082031.808594-1.554688 1.277344-.472656.472656-.902343.992188-1.269531 1.558594-.367188.550781-.6875 1.144531-.941406 1.757812-.257813.625-.449219 1.269532-.585938 1.914063-.132812.667969-.203125 1.34375-.203125 2.007812 0 .667969.070313 1.339844.203125 1.996094.132813.65625.328125 1.300781.585938 1.914063zm0 0"/><path d="m159.878906 147.335938c.253906.625.574219 1.21875.941406 1.773437.367188.5625.796876 1.085937 1.269532 1.554687 1.902344 1.90625 4.546875 3 7.238281 3 .664063 0 1.339844-.070312 1.996094-.203124.65625-.132813 1.300781-.328126 1.914062-.585938.625-.253906 1.21875-.570312 1.769531-.941406.5625-.367188 1.085938-.796875 1.558594-1.269532.472656-.46875.902344-.992187 1.269532-1.554687.367187-.554687.6875-1.148437.941406-1.773437.257812-.613282.460937-1.257813.582031-1.914063.132813-.65625.207031-1.328125.207031-1.996094 0-.664062-.074218-1.339843-.207031-2.007812-.121094-.644531-.324219-1.289063-.582031-1.914063-.253906-.613281-.574219-1.207031-.941406-1.757812-.367188-.566406-.796876-1.085938-1.269532-1.558594-.472656-.46875-.996094-.902344-1.558594-1.277344-.550781-.371094-1.144531-.6875-1.769531-.945312-.613281-.253906-1.257812-.449219-1.914062-.582032-3.328125-.664062-6.859375.429688-9.234375 2.804688-.472656.472656-.902344.992188-1.269532 1.558594-.367187.550781-.6875 1.144531-.941406 1.757812-.257812.625-.460937 1.269532-.585937 1.914063-.132813.667969-.203125 1.34375-.203125 2.007812 0 .667969.070312 1.339844.203125 1.996094.125.65625.328125 1.300781.585937 1.914063zm0 0"/><path d="m483.894531 0h-332.921875c-15.503906 0-28.113281 11.53125-28.113281 25.707031v76.675781h-33.316406c-15.503907 0-28.113281 11.53125-28.113281 25.707032v76.671875h-33.316407c-15.5 0-28.113281 11.535156-28.113281 25.710937v255.726563c0 14.175781 12.613281 25.707031 28.113281 25.707031h332.925781c15.496094 0 28.101563-11.53125 28.101563-25.707031v-76.671875h33.328125c15.496094 0 28.101562-11.535156 28.101562-25.710938v-76.671875h33.324219c15.5 0 28.105469-11.53125 28.105469-25.707031v-255.730469c0-14.175781-12.609375-25.707031-28.105469-25.707031zm-332.921875 20.476562h332.921875c4.367188 0 7.628907 2.761719 7.628907 5.230469v35.722657h-348.1875v-35.722657c0-2.46875 3.265624-5.230469 7.636718-5.230469zm-61.429687 102.382813h332.925781c4.363281 0 7.625 2.761719 7.625 5.230469v35.71875h-348.1875v-35.71875c0-2.46875 3.265625-5.230469 7.636719-5.230469zm-61.429688 102.378906h332.925781c4.363282 0 7.625 2.761719 7.625 5.234375v35.71875h-348.1875v-35.71875c0-2.472656 3.265626-5.234375 7.636719-5.234375zm340.550781 260.960938c0 2.46875-3.261718 5.230469-7.625 5.230469h-332.925781c-4.371093 0-7.636719-2.761719-7.636719-5.230469v-199.53125h348.1875zm115.230469-199.53125h-33.324219v-8.414063c0-5.652344-4.582031-10.238281-10.238281-10.238281-5.652343 0-10.238281 4.585937-10.238281 10.238281v105.5625c0 2.472656-3.261719 5.234375-7.625 5.234375h-33.328125v-158.578125c0-14.175781-12.605469-25.710937-28.101563-25.710937h-279.132812v-20.476563h348.1875v12.066406c0 5.652344 4.585938 10.238282 10.238281 10.238282 5.65625 0 10.238281-4.585938 10.238281-10.238282v-68.261718c0-14.175782-12.605468-25.707032-28.101562-25.707032h-279.132812v-20.476562h348.1875v199.53125c0 2.46875-3.261719 5.230469-7.628907 5.230469zm0 0"/><path d="m268.722656 51.28125h194.449219c5.652344 0 10.238281-4.582031 10.238281-10.238281s-4.585937-10.238281-10.238281-10.238281h-194.449219c-5.652344 0-10.238281 4.582031-10.238281 10.238281s4.585937 10.238281 10.238281 10.238281zm0 0"/><path d="m165.132812 49.550781c.550782.371094 1.144532.6875 1.757813.945313.625.253906 1.269531.449218 1.917969.582031.664062.132813 1.339844.203125 2.003906.203125s1.34375-.070312 1.996094-.203125c.65625-.132813 1.300781-.328125 1.914062-.582031.625-.257813 1.21875-.574219 1.773438-.945313.5625-.367187 1.082031-.796875 1.554687-1.269531 1.902344-1.902344 3-4.542969 3-7.238281 0-2.691407-1.09375-5.332031-3-7.238281-.472656-.46875-.992187-.898438-1.554687-1.277344-.554688-.371094-1.148438-.6875-1.773438-.941406-.613281-.257813-1.257812-.453126-1.914062-.585938-1.320313-.265625-2.679688-.265625-4 0-.648438.132812-1.292969.328125-1.917969.585938-.613281.253906-1.207031.570312-1.757813.941406-.566406.378906-1.085937.808594-1.558593 1.277344-1.90625 1.90625-3 4.539062-3 7.238281 0 2.695312 1.09375 5.335937 3 7.238281.472656.472656.992187.902344 1.558593 1.269531zm0 0"/><path d="m191.332031 44.957031c.253907.625.570313 1.21875.941407 1.769531.367187.5625.796874 1.085938 1.269531 1.554688.46875.472656.992187.902344 1.554687 1.269531.5625.371094 1.15625.6875 1.773438.945313.613281.253906 1.257812.449218 1.910156.582031.667969.132813 1.332031.203125 2 .203125 2.703125 0 5.332031-1.09375 7.238281-3 .480469-.46875.898438-.992188 1.277344-1.554688.371094-.550781.6875-1.144531.941406-1.769531.257813-.617187.453125-1.261719.585938-1.914062.132812-.65625.191406-1.332031.191406-2 0-.664063-.058594-1.339844-.191406-2.003907-.132813-.644531-.328125-1.289062-.585938-1.914062-.253906-.617188-.570312-1.210938-.941406-1.761719-.378906-.5625-.796875-1.085937-1.277344-1.558593-.472656-.46875-.996093-.898438-1.558593-1.277344-.550782-.371094-1.144532-.6875-1.761719-.941406-.613281-.257813-1.257813-.453126-1.914063-.585938-1.320312-.265625-2.683594-.265625-4.003906 0-.65625.132812-1.300781.328125-1.914062.585938-.613282.253906-1.21875.570312-1.769532.941406-.5625.378906-1.085937.808594-1.554687 1.277344-.472657.472656-.902344.996093-1.269531 1.558593-.371094.550781-.6875 1.144531-.945313 1.761719-.253906.625-.449219 1.269531-.582031 1.914062-.132813.664063-.203125 1.339844-.203125 2.003907 0 .667969.070312 1.34375.203125 2 .132812.652343.328125 1.296875.585937 1.914062zm0 0"/><path d="m225.074219 49.550781c.554687.371094 1.148437.6875 1.761719.945313.625.253906 1.269531.449218 1.914062.582031.667969.132813 1.34375.203125 2.007812.203125.664063 0 1.339844-.070312 1.996094-.203125s1.300782-.328125 1.914063-.582031c.625-.257813 1.21875-.574219 1.769531-.945313.566406-.367187 1.085938-.796875 1.558594-1.269531.472656-.46875.902344-.992188 1.269531-1.554688.367187-.550781.6875-1.144531.941406-1.769531.257813-.617187.460938-1.261719.59375-1.914062.121094-.65625.195313-1.332031.195313-2 0-.664063-.074219-1.339844-.195313-2.003907-.132812-.644531-.335937-1.289062-.59375-1.914062-.253906-.617188-.574219-1.210938-.941406-1.761719-.367187-.5625-.796875-1.085937-1.269531-1.558593-.472656-.46875-.992188-.898438-1.558594-1.277344-.550781-.371094-1.144531-.6875-1.769531-.941406-.613281-.257813-1.257813-.453126-1.914063-.585938-1.320312-.265625-2.671875-.265625-4.003906 0-.644531.132812-1.289062.328125-1.914062.585938-.613282.253906-1.207032.570312-1.761719.941406-.5625.378906-1.085938.808594-1.554688 1.277344-.472656.472656-.902343.996093-1.28125 1.558593-.359375.550781-.675781 1.144531-.929687 1.761719-.257813.625-.460938 1.269531-.585938 1.914062-.132812.664063-.203125 1.339844-.203125 2.003907 0 2.695312 1.09375 5.335937 3 7.238281.46875.472656.992188.902344 1.554688 1.269531zm0 0"/><path d="m449.566406 233.726562c-.253906-.613281-.574218-1.207031-.941406-1.761718-.378906-.5625-.808594-1.085938-1.28125-1.554688-.46875-.480468-.992188-.902344-1.554688-1.28125-.554687-.367187-1.148437-.683594-1.761718-.941406-.625-.253906-1.269532-.449219-1.914063-.582031-1.332031-.265625-2.683593-.265625-4.003906 0-.65625.132812-1.300781.328125-1.914063.582031-.625.257812-1.21875.574219-1.769531.941406-.5625.378906-1.085937.800782-1.558593 1.28125-.46875.46875-.898438.992188-1.269532 1.554688-.367187.554687-.683594 1.148437-.941406 1.761718-.253906.613282-.449219 1.257813-.582031 1.914063-.132813.667969-.203125 1.332031-.203125 2.007813 0 .664062.070312 1.332031.203125 1.996093.132812.65625.328125 1.300781.582031 1.914063.257812.613281.574219 1.207031.941406 1.773437.371094.550781.800782 1.082031 1.269532 1.554688.472656.472656.996093.902343 1.558593 1.269531.550781.367188 1.144531.6875 1.769531.941406.613282.257813 1.257813.449219 1.914063.582032.65625.136718 1.332031.207031 1.996094.207031.664062 0 1.34375-.070313 2.007812-.207031.644531-.132813 1.289063-.324219 1.914063-.582032.613281-.253906 1.207031-.574218 1.761718-.941406.5625-.367188 1.085938-.796875 1.554688-1.269531.472656-.472657.902344-1.003907 1.28125-1.554688.367188-.566406.6875-1.160156.941406-1.773437.257813-.613282.449219-1.257813.582032-1.914063.136718-.664062.195312-1.332031.195312-1.996093 0-.675782-.0625-1.339844-.195312-2.007813-.128907-.65625-.324219-1.300781-.582032-1.914063zm0 0"/></svg>