<svg viewBox="0 0 512 512" xmlns="http://www.w3.org/2000/svg"><path d="m389.921875 47.011719v42.808593h-279.84375v-42.808593c0-20.441407 14.371094-37.011719 32.09375-37.011719h215.65625c17.722656 0 32.09375 16.570312 32.09375 37.011719zm0 0" fill="#707c96"/><path d="m389.921875 89.820312v220.230469h-39.921875v-180h-200v180h-39.921875v-220.230469zm0 0" fill="#f7f7f7"/><path d="m389.921875 430.050781v38.871094c0 17.71875-14.371094 32.078125-32.09375 32.078125h-215.65625c-17.722656 0-32.09375-14.359375-32.09375-32.078125v-38.871094zm0 0" fill="#707c96"/><path d="m150 130.050781h200v40h-200zm0 0" fill="#ffa3bf"/><path d="m150 170.050781h200v140h-200zm0 0" fill="#fff"/><path d="m10 310.050781h492v80h-492zm0 0" fill="#ffc954"/><path d="m10 390.050781h492v40h-492zm0 0" fill="#fade76"/><path d="m259.230469 460.859375c-.25-.597656-.5625-1.179687-.921875-1.730469-.359375-.539062-.777344-1.058594-1.238282-1.519531-.460937-.460937-.972656-.878906-1.519531-1.238281-.542969-.359375-1.121093-.671875-1.730469-.921875-.601562-.25-1.230468-.4375-1.871093-.570313-3.25-.648437-6.699219.410156-9.019531 2.730469-.460938.460937-.878907.980469-1.242188 1.519531-.359375.550782-.667969 1.132813-.917969 1.730469-.25.601563-.449219 1.230469-.570312 1.871094-.128907.640625-.199219 1.300781-.199219 1.949219 0 .660156.070312 1.308593.199219 1.960937.121093.640625.320312 1.269531.570312 1.871094.25.597656.558594 1.179687.917969 1.726562.363281.542969.78125 1.050781 1.242188 1.523438.460937.457031.96875.867187 1.519531 1.238281.539062.359375 1.121093.671875 1.730469.921875.597656.25 1.230468.4375 1.871093.566406.636719.132813 1.296875.191407 1.949219.191407.648438 0 1.308594-.058594 1.949219-.191407.640625-.128906 1.269531-.316406 1.871093-.566406.609376-.25 1.1875-.5625 1.730469-.921875.546875-.371094 1.058594-.78125 1.519531-1.238281.460938-.472657.878907-.980469 1.238282-1.523438.359375-.546875.671875-1.128906.921875-1.726562.25-.601563.449219-1.230469.570312-1.871094.128907-.652344.199219-1.300781.199219-1.960937 0-.648438-.070312-1.300782-.199219-1.949219-.121093-.640625-.320312-1.269531-.570312-1.871094zm0 0"/><path d="m220 60.054688h60c5.523438 0 10-4.480469 10-10 0-5.523438-4.476562-10-10-10h-60c-5.523438 0-10 4.476562-10 10 0 5.519531 4.476562 10 10 10zm0 0"/><path d="m502 300.050781h-102.078125v-253.035156c0-25.925781-18.882813-47.015625-42.09375-47.015625h-215.65625c-23.210937 0-42.09375 21.089844-42.09375 47.015625v253.035156h-90.078125c-5.523438 0-10 4.476563-10 10v120c0 5.523438 4.476562 10 10 10h90.078125v28.871094c0 23.199219 18.882813 42.078125 42.09375 42.078125h215.65625c23.210937 0 42.09375-18.878906 42.09375-42.078125v-28.871094h102.078125c5.523438 0 10-4.476562 10-10v-120c0-5.523437-4.476562-10-10-10zm-342 0v-119.996093h84.558594c5.523437 0 10-4.480469 10-10 0-5.523438-4.476563-10-10-10h-84.558594v-20h180v20h-15.441406c-5.523438 0-10 4.476562-10 10 0 5.519531 4.476562 10 10 10h15.441406v119.996093zm-17.828125-280.050781h215.65625c12.183594 0 22.09375 12.117188 22.09375 27.015625v32.800781h-259.84375v-32.800781c0-14.898437 9.910156-27.015625 22.09375-27.015625zm-22.09375 79.816406h259.84375v200.234375h-19.921875v-169.996093c0-5.523438-4.476562-10-10-10h-200c-5.523438 0-10 4.476562-10 10v169.996093h-19.921875zm-80.078125 220.234375v30.003907c0 5.519531 4.476562 10 10 10s10-4.480469 10-10v-30.003907h20v10.003907c0 5.519531 4.476562 10 10 10s10-4.480469 10-10v-10.003907h20v10.003907c0 5.519531 4.476562 10 10 10s10-4.480469 10-10v-10.003907h20v10.003907c0 5.519531 4.476562 10 10 10s10-4.480469 10-10v-10.003907h20v30.003907c0 5.519531 4.476562 10 10 10s10-4.480469 10-10v-30.003907h20v10.003907c0 5.519531 4.476562 10 10 10s10-4.480469 10-10v-10.003907h20v10.003907c0 5.519531 4.476562 10 10 10s10-4.480469 10-10v-10.003907h20v10.003907c0 5.519531 4.476562 10 10 10s10-4.480469 10-10v-10.003907h20v30.003907c0 5.519531 4.476562 10 10 10s10-4.480469 10-10v-30.003907h20v10.003907c0 5.519531 4.476562 10 10 10s10-4.480469 10-10v-10.003907h20v10.003907c0 5.519531 4.476562 10 10 10s10-4.480469 10-10v-10.003907h32v60.003907h-472v-60.003907zm317.828125 170.949219h-215.65625c-12.183594 0-22.09375-9.90625-22.09375-22.078125v-28.867187h259.84375v28.867187c0 12.171875-9.910156 22.078125-22.09375 22.078125zm-337.828125-70.949219v-19.996093h472v19.996093zm0 0"/><path d="m293.460938 166.058594c-.25-.597656-.5625-1.179688-.921876-1.71875-.367187-.550782-.777343-1.058594-1.25-1.519532-.460937-.460937-.96875-.878906-1.519531-1.25-.539062-.359374-1.121093-.671874-1.71875-.921874-.601562-.25-1.230469-.4375-1.871093-.570313-1.289063-.257813-2.621094-.257813-3.910157 0-.640625.132813-1.269531.320313-1.871093.570313-.597657.25-1.179688.5625-1.726563.921874-.542969.371094-1.0625.789063-1.523437 1.25-.460938.460938-.878907.96875-1.238282 1.519532-.359375.539062-.671875 1.121094-.921875 1.71875-.25.613281-.4375 1.230468-.566406 1.871094-.132813.648437-.191406 1.300781-.191406 1.960937 0 .648437.058593 1.308594.191406 1.949219.128906.640625.316406 1.269531.566406 1.871094.25.597656.5625 1.1875.921875 1.730468.359375.546875.777344 1.058594 1.238282 1.519532.460937.460937.980468.878906 1.523437 1.238281.546875.359375 1.128906.671875 1.726563.921875.601562.25 1.230468.4375 1.871093.570312.648438.128906 1.300781.199219 1.960938.199219.648437 0 1.300781-.070313 1.949219-.199219.640624-.132812 1.269531-.320312 1.871093-.570312.597657-.25 1.179688-.5625 1.71875-.921875.550781-.359375 1.058594-.777344 1.519531-1.238281.472657-.460938.882813-.972657 1.25-1.519532.359376-.542968.671876-1.132812.921876-1.730468.25-.601563.4375-1.230469.570312-1.871094.128906-.640625.1875-1.300782.1875-1.949219 0-.660156-.058594-1.3125-.1875-1.960937-.132812-.640626-.320312-1.257813-.570312-1.871094zm0 0"/></svg>